<?xml version="1.0"?>
<svg width="1122.52" height="793.70135" xmlns="http://www.w3.org/2000/svg" xmlns:svg="http://www.w3.org/2000/svg" version="1.1" xml:space="preserve">
 <metadata id="metadata8">image/svg+xml</metadata>
 <defs id="defs6">
  <linearGradient id="linearGradient32" spreadMethod="pad" x1="0.04" x2="0.85" y1="0.04" y2="0.85">
   <stop id="stop24" offset="0" stop-color="#2982f8"/>
   <stop id="stop26" offset="0.33" stop-color="#10bcdf"/>
   <stop id="stop28" offset="0.6" stop-color="#04d7d3"/>
   <stop id="stop30" offset="1" stop-color="#00e2ce"/>
  </linearGradient>
  <clipPath clipPathUnits="userSpaceOnUse" id="clipPath42">
   <path d="m0,595.28l841.89,0l0,-595.28l-841.89,0l0,595.28z" id="path40"/>
  </clipPath>
 </defs>
 <g class="layer">
  <title>Layer 1</title>
  <g id="g12" transform="matrix(1.33333 0 0 -1.33333 0 793.701)">
   <g id="g14">
    <g id="g20">
     <g id="g22">
      <path d="m242.56,347.71c0,-19.66 3.38,-38.53 9.55,-56.09l0,0c3.86,-22.09 4.38,-31.9 1.53,-47.01l0,0c-2.05,-10.81 -8.3,-17.88 -7.25,-28.03l0,0c0.95,-9.2 1.63,-14.46 9.86,-23.38l0,0c9.72,-9.85 18.73,-9.25 21.6,-9.69l0,0c10.01,-1.54 17.42,4.14 28.29,5.5l0,0c17.1,2.14 29.51,3.31 57.51,-3.69l0,0c0.11,-0.03 0.21,-0.04 0.31,-0.06l0,0c15.22,-4.49 31.31,-6.94 47.98,-6.94l0,0c93.56,0 169.39,75.84 169.39,169.39l0,0c0,93.55 -75.83,169.39 -169.38,169.39l0,0c-93.56,0 -169.39,-75.84 -169.39,-169.39" fill="url(#linearGradient32)" id="path34"/>
     </g>
    </g>
   </g>
  </g>
  <g id="g44" transform="matrix(1.33333 0 0 -1.33333 148.973 -145.365)">
   <path d="m335.19,-301.84c0,6.33 -5.13,11.46 -11.46,11.46c-6.33,0 -11.47,-5.13 -11.47,-11.46c0,-6.33 5.14,-11.46 11.47,-11.46c6.33,0 11.46,5.13 11.46,11.46" fill="#fd71c8" fill-rule="nonzero" id="path46"/>
  </g>
  <g id="g48" transform="matrix(1.33333 0 0 -1.33333 132.147 -194.903)">
   <path d="m297.33,-317.77c-5.92,0 -10.82,-4.41 -11.41,-10.26l-0.02,-0.21l0,-103.64l0.02,-0.21c0.59,-5.85 5.49,-10.26 11.41,-10.26c6.34,0 11.5,5.1 11.5,11.38l0,101.82c0,6.27 -5.16,11.38 -11.5,11.38m38.68,-36.94c-4.76,0 -11.54,-2.86 -11.54,-9.39l0,-66.87c0,-9.37 6.78,-11.38 11.54,-11.38c6.28,0 11.39,5.1 11.39,11.38l0,64.88c0,6.28 -5.11,11.39 -11.39,11.39m70.35,1.79c-5.64,0 -10.98,-1.22 -15.75,-3.57c-2,-0.99 -6.76,-0.7 -7.96,-0.1c-1.22,0.61 -2.04,1.88 -3.49,1.88l-12.84,0c-2.49,0 -4.45,-2.12 -4.26,-4.6c0.45,-6.01 0.64,-12.32 0.64,-21.09l0,-50.58c0.1,-4.09 0.51,-4.28 0.51,-4.28c1.79,-4.41 6.78,-7.46 11.91,-7.07c6.05,0.45 10.51,5.91 10.51,11.97l0,39.83c0,2.04 0.27,3.99 0.73,5.24l0.07,0.21c1.78,5.81 7.17,11.68 15.19,11.68c9.31,0 14.03,-6.42 14.03,-19.09l0,-38.49c0.34,-10.03 7.29,-11.74 12.43,-11.35c6.04,0.45 10.5,5.91 10.5,11.97l0,39.5c0,28.01 -17.35,37.94 -32.22,37.94m-172.72,-71.42c-8.23,0 -15.21,5.41 -17.4,13.49c0,0 0,0.01 0,0.01c-0.29,1.64 -0.55,3.25 -0.55,4.94l0,13.57c0,1.54 0.47,3.45 0.84,4.82c2.22,8.6 9.46,14.6 17.6,14.6c13.3,0 19.26,-12.62 19.26,-25.14c0,-16.46 -7.38,-26.29 -19.75,-26.29m4.9,71.42c-6.31,0 -12.09,-1.28 -17.14,-3.76c-6.28,-3.38 -7.19,-0.51 -7.79,0.26c-0.61,0.78 -0.47,1.72 -3.55,1.71l-10.79,0c0,0 -7.34,0.42 -7,-4.47c0,0 0.65,-15.76 0.65,-25.63l0,-77.93c0,-6 4.37,-11.4 10.34,-11.94c6.74,-0.6 12.43,4.72 12.43,11.34l0,18.68c0,2.79 2.87,4.77 5.41,3.61c4.49,-2.04 9.59,-3.11 14.99,-3.11c19.38,0 40.23,14.63 40.23,46.76c0,25.78 -15.89,44.48 -37.78,44.48" fill="#ffffff" fill-rule="nonzero" id="path50"/>
  </g>
 </g>
</svg>