<?xml version="1.0"?>
<svg width="1821.3333" height="1024" xmlns="http://www.w3.org/2000/svg" xmlns:svg="http://www.w3.org/2000/svg" version="1.1" xml:space="preserve">
 <metadata id="metadata8">image/svg+xml</metadata>
 <defs id="defs6">
  <clipPath clipPathUnits="userSpaceOnUse" id="clipPath20">
   <path d="m-22,778.25l1366,0l0,-768l-1366,0l0,768z" id="path18"/>
  </clipPath>
 </defs>
 <g class="layer">
  <title>Layer 1</title>
  <path d="m1201.53,803.4l-581.73,0l0,-581.73l581.73,0l0,581.73z" fill="#6f0375" fill-rule="nonzero" id="path12" transform="matrix(1 0 0 1 0 0)"/>
  <g id="g22" transform="matrix(1.33333 0 0 -1.33333 264.903 85.4829)">
   <path d="m596.04,-301.67c1.47,2.29 4.37,4.48 6.74,2.48c1.41,-1.18 1.75,-5.08 0.97,-7.16c-2.82,-7.6 -9.05,-11.52 -16.45,-13.73c-0.51,0.37 -1.02,0.74 -1.53,1.12c3.4,5.78 6.65,11.65 10.27,17.29m-13.9,-37.09c0.52,2.61 1.82,3.78 4.71,4.37c16.35,3.37 29.02,16.66 31.88,32.95c1.81,10.27 -4.16,17.68 -14.57,18.1c-5.69,0.24 -10.71,-1.53 -14.86,-5.36c-16.45,-15.19 -22.91,-34.74 -24.62,-56.25c0.39,-3.59 0.57,-7.01 1.14,-10.37c2,-11.67 11.08,-17.58 22.51,-14.67c9.73,2.47 17.3,8.33 24.09,15.46c4.53,4.76 5.07,6.98 2.43,12.89c-2.2,4.94 -4.22,5.01 -8.11,1.15c-3.7,-3.68 -7.73,-7.12 -12.02,-10.07c-3.15,-2.17 -7.18,-3.66 -10.75,-0.91c-3.67,2.83 -2.79,7.12 -2.33,11.08c0.06,0.56 0.39,1.08 0.5,1.63m-203.07,-129.88c-2,-2.35 -4.44,-4.49 -7.08,-6.06c-1.6,-0.95 -4.7,-1.51 -5.81,-0.61c-1.4,1.12 -2.35,4.14 -1.89,5.94c1.07,4.21 2.65,8.43 4.8,12.2c7.03,12.32 17.22,21.25 31.22,27.64c-5.56,-14.86 -11.7,-27.93 -21.24,-39.11m111.08,149.12c-3.71,-12.49 -7.77,-24.87 -11.83,-37.24c-0.52,-1.56 -1.66,-3 -2.8,-4.23c-2.96,-3.2 -7.33,-2.82 -9.13,1.12c-1.44,3.14 -1.96,6.71 -2.62,9.11c1.64,12.47 4.13,23.35 12.89,31.5c2.21,2.06 5.1,3.62 7.95,4.69c3.54,1.33 6.62,-1.33 5.54,-4.95m33.12,-34.43c3.01,11.22 5.79,22.51 9.38,33.54c1.25,3.84 4.24,7.37 7.16,10.33c3.44,3.5 6.9,2.27 8.11,-2.46c0.63,-2.46 0.75,-5.03 0.95,-6.45c-0.54,-11.54 -3.57,-21.28 -8.08,-30.51c-2.66,-5.42 -6.65,-9.71 -13.59,-9.11c-2.78,0.24 -4.79,1.45 -3.93,4.66m67.94,-26.86c-15.6,-1.18 -31.2,-2.44 -46.77,-3.93c-9.56,-0.91 -19.07,-2.29 -29.07,-3.52c1.05,7 2.03,13.49 3.07,20.47c1.34,-0.96 2.03,-1.45 2.71,-1.94c9.61,-6.79 18.81,-5.9 26.63,2.81c6.03,6.73 9.26,14.97 11.79,23.46c4.01,13.49 6.73,27.13 2.99,41.19c-3.26,12.22 -15.14,15.34 -24.34,6.44c-1.83,-1.78 -3.71,-3.51 -5.32,-5.02c-0.41,1.44 -0.38,3.49 -1.39,4.49c-4.45,4.39 -11.74,2.2 -12.92,-3.79c-3.4,-17.15 -6.63,-34.35 -10.19,-51.47c-0.44,-2.12 -2.17,-4.18 -3.8,-5.77c-1.07,-1.04 -3.02,-1.18 -4.57,-1.73c-0.56,1.69 -1.75,3.44 -1.56,5.04c0.7,6.07 1.68,12.11 2.86,18.11c2.07,10.46 4.43,20.86 6.52,31.31c0.76,3.79 -0.79,6.19 -4.8,7.17c-5.65,1.38 -6.67,0.97 -10.32,-5.58c-9.88,5.81 -17,4.82 -25.11,-3.56c-6.88,-7.11 -11.08,-15.8 -14.36,-24.99c-4.51,-12.66 -6.9,-25.55 -3.76,-38.95c1.39,-5.92 4.55,-10.31 10.74,-12.12c6.61,-1.93 12.11,-0.08 16.67,4.75c2.01,2.14 3.57,4.72 5.5,7.32c1.3,-4.73 4.11,-8.46 9,-8.16c4.27,0.27 8.43,2.31 12.71,3.59c-0.71,-3.57 -1.76,-7.28 -2.12,-11.07c-0.32,-3.4 -1.95,-4.38 -5.08,-4.85c-17.44,-2.64 -34.85,-5.46 -52.26,-8.26c-5.53,-0.89 -11.03,-1.91 -17.19,-2.97c2.53,9 4.86,17.19 7.14,25.4c6.2,22.34 12.47,44.66 18.52,67.04c1.58,5.83 -0.87,8.13 -6.74,6.72c-6.92,-1.65 -11.21,-6.04 -13.6,-12.82c-4.79,-13.53 -9.7,-27.04 -15.14,-40.32c-1.54,-3.76 -4.78,-7.04 -7.86,-9.87c-1.43,-1.31 -4.95,-2.01 -6.42,-1.14c-1.5,0.9 -2.39,4.13 -2.21,6.23c0.34,4.07 1.46,8.1 2.53,12.07c2.22,8.23 4.91,16.35 6.82,24.65c1.24,5.42 -3.22,9.72 -9.47,10.03c-4.09,0.2 -5.24,-1.78 -5.55,-8.15c-0.15,-3.06 -0.84,-6.16 -1.74,-9.11c-1.37,-4.48 -3.47,-8.76 -4.66,-13.28c-2.26,-8.51 -4.56,-17.05 -5.95,-25.72c-1.03,-6.36 0.35,-12.74 6.4,-16.54c6.09,-3.83 12.07,-2.23 17.49,1.78c3.03,2.24 5.78,4.87 9.17,7.75c-3.18,-9.73 -6.07,-18.91 -9.26,-27.99c-0.47,-1.32 -2.22,-2.39 -3.61,-3.15c-7.71,-4.24 -15.91,-7.72 -23.16,-12.61c-16.4,-11.06 -27.86,-25.91 -31.95,-45.72c-1.79,-8.72 -0.19,-16.61 7.06,-22.33c7.5,-5.93 15.69,-4.97 23.75,-1.06c7.78,3.78 13.3,10.13 18.46,16.83c10.51,13.65 16.59,29.44 21.84,45.58c1.02,3.12 2.54,4.64 5.69,5.27c17.99,3.6 35.94,7.39 53.93,10.99c5.94,1.19 11.94,2.01 18.24,3.05c0.1,-2.14 -0.22,-3.71 0.32,-4.88c1.02,-2.17 2.16,-5.2 3.96,-5.83c1.79,-0.63 5.01,0.68 6.59,2.2c1.82,1.74 3.02,4.53 3.6,7.07c0.63,2.75 1.96,3.73 4.51,4.06c16.37,2.09 32.74,4.21 49.1,6.39c9.72,1.3 19.48,2.43 29.12,4.18c4.96,0.9 6.56,5.25 4.59,9.91c-1.47,3.5 -4.25,5.12 -7.77,4.85" fill="#ffffff" fill-rule="nonzero" id="path24"/>
  </g>
  <g id="g26" transform="matrix(1.33333 0 0 -1.33333 245.905 -167.24)">
   <path d="m553.29,-382.9l-23.3,-42.39c-0.74,-1.34 -2.16,-2.18 -3.7,-2.18c-0.71,0 -1.41,0.18 -2.03,0.52c-2.04,1.12 -2.79,3.69 -1.67,5.73l23.3,42.38c1.12,2.04 3.69,2.78 5.73,1.67l0.01,0c2.03,-1.12 2.78,-3.69 1.66,-5.73m-35.87,-38.8c-1.54,-2.61 -3.65,-4.62 -6.3,-5.99c-2.61,-1.35 -5.77,-2.03 -9.4,-2.03c-5.69,0 -10.31,1.7 -13.72,5.06c-3.41,3.35 -5.21,7.93 -5.34,13.6c-0.01,0.03 -0.1,1.17 0.75,2.13c0.65,0.75 1.63,1.15 2.92,1.18c1.51,0.02 2.69,-0.31 3.43,-1.04c0.56,-0.56 0.75,-1.25 0.74,-1.71c0.27,-2.48 0.87,-4.53 1.78,-5.95c0.91,-1.39 2.23,-2.53 3.93,-3.39c1.73,-0.87 3.72,-1.32 5.9,-1.32c3.12,0 5.54,0.73 7.2,2.15c1.63,1.4 2.42,3.17 2.42,5.43c0,1.3 -0.28,2.4 -0.85,3.35c-0.57,0.95 -1.46,1.74 -2.64,2.35c-1.32,0.69 -4.27,1.69 -8.78,2.99c-4.26,1.23 -7.24,2.45 -9.11,3.74c-1.89,1.3 -3.38,2.98 -4.44,4.99c-1.05,2 -1.58,4.29 -1.58,6.8c0,4.5 1.52,8.24 4.53,11.11c3,2.86 7.05,4.31 12.06,4.31c3.41,0 6.45,-0.67 9.04,-2c2.62,-1.34 4.69,-3.3 6.14,-5.81c1.44,-2.49 2.21,-5.44 2.32,-8.77c0,-0.09 0.06,-1.32 -0.84,-2.31c-0.44,-0.49 -1.28,-1.08 -2.75,-1.13c-1.52,-0.06 -2.69,0.3 -3.47,1.04c-0.82,0.77 -0.89,1.67 -0.89,1.84c-0.26,2.96 -1.17,5.2 -2.7,6.6c-1.54,1.4 -3.78,2.11 -6.67,2.11c-2.96,0 -5.21,-0.62 -6.69,-1.85c-1.43,-1.18 -2.13,-2.68 -2.13,-4.57c0,-1.75 0.49,-3.05 1.49,-3.97c0.76,-0.7 2.76,-1.82 7.97,-3.22c4.4,-1.18 7.43,-2.19 9.26,-3.08l0.01,0c2.84,-1.42 5.02,-3.31 6.49,-5.64c1.48,-2.32 2.22,-5.12 2.22,-8.32c0,-3.15 -0.77,-6.07 -2.3,-8.68m-4.39,84.22c-33.28,0 -60.26,-26.98 -60.26,-60.26c0,-15.89 6.15,-30.33 16.2,-41.09l-1.42,-25.54c-0.13,-2.32 2.46,-3.78 4.37,-2.46l18.97,13.04c6.86,-2.71 14.32,-4.22 22.14,-4.22c33.28,0 60.26,26.98 60.26,60.27c0,33.28 -26.98,60.26 -60.26,60.26" fill="#00d1b5" fill-rule="nonzero" id="path28"/>
  </g>
 </g>
</svg>